# xmcd
#
# Track frame offsets:
#	150
#	13285
#	27980
#	51520
#	70677
#	81222
#	111315
#	138347
#	170220
#	189515
#	212492
#	235882
#	257252
#	269895
#	284400
#	295430
#	308697
#
# Disc length: 4448 seconds
#
# Revision: 1
# Processed by: cddbd v1.5.2PL0 Copyright (c) Steve Scherf et al.
# Submitted via: audiograbber 1.83.01
#
DISCID=09115e11
DTITLE=Various Artist - Love Duets
DYEAR=1998
DGENRE=
TTITLE0=Là ci darem la mano
TTITLE1=Parigi, o cara, noi lasceremo
TTITLE2=Dunque io son... Tu non m'inganni?
TTITLE3=O soave fanciulla
TTITLE4=C'est une chanson d'amour
TTITLE5=Chiedi all'aura
TTITLE6=C'est toi? C'est moi!
TTITLE7=Vogliatemi bene
TTITLE8=M'ami, m'ami
TTITLE9=Nuit d'hyménée
TTITLE10=Ab, quegli occhi... Mia gelosa!
TTITLE11=E il sol dell'anima - Che m'ami
TTITLE12=O namenlose Freude
TTITLE13=Bei Männern, welche Liebe fühlen
TTITLE14=Lippen schweigen
TTITLE15=Trinke, Liebchen, trinke schnell
TTITLE16=Bess, you is my woman now
EXTD=
EXTT0=
EXTT1=
EXTT2=
EXTT3=
EXTT4=
EXTT5=
EXTT6=
EXTT7=
EXTT8=
EXTT9=
EXTT10=
EXTT11=
EXTT12=
EXTT13=
EXTT14=
EXTT15=
EXTT16=
PLAYORDER=
